<svg xmlns="http://www.w3.org/2000/svg" viewBox="0 0 1000 650">
  <!-- Definitions for gradients and markers -->
  <defs>
    <marker id="arrow" markerWidth="10" markerHeight="10" refX="9" refY="3" orient="auto" markerUnits="strokeWidth">
      <path d="M0,0 L0,6 L9,3 z" fill="#333" />
    </marker>
    <filter id="shadow" x="-20%" y="-20%" width="140%" height="140%">
      <feDropShadow dx="2" dy="2" stdDeviation="3" flood-color="#000" flood-opacity="0.2"/>
    </filter>
    <linearGradient id="gradFrozen" x1="0%" y1="0%" x2="0%" y2="100%">
      <stop offset="0%" style="stop-color:#B0BEC5;stop-opacity:1" />
      <stop offset="100%" style="stop-color:#90A4AE;stop-opacity:1" />
    </linearGradient>
    <linearGradient id="gradTrainable" x1="0%" y1="0%" x2="0%" y2="100%">
      <stop offset="0%" style="stop-color:#66BB6A;stop-opacity:1" />
      <stop offset="100%" style="stop-color:#43A047;stop-opacity:1" />
    </linearGradient>
  </defs>

  <!-- Background -->
  <rect width="100%" height="100%" fill="#f9f9f9" />
  
  <!-- Title -->
  <text x="50" y="50" font-family="Arial, sans-serif" font-size="28" font-weight="bold" fill="#333">
    Proposed Architecture
  </text>
  <text x="50" y="80" font-family="Arial, sans-serif" font-size="16" fill="#666">
    Phase 1: Client Engine Architecture
  </text>

  <!-- LEGEND -->
  <g transform="translate(700, 30)">
    <!-- Frozen Item -->
    <rect x="0" y="0" width="20" height="20" fill="url(#gradFrozen)" stroke="#546E7A" />
    <text x="30" y="15" font-family="Arial" font-size="14">Frozen (Backbone)</text>
    
    <!-- Trainable Item -->
    <rect x="0" y="30" width="20" height="20" fill="url(#gradTrainable)" stroke="#2E7D32" />
    <text x="30" y="45" font-family="Arial" font-size="14">Trainable (IBA)</text>

    <!-- Variable Definitions -->
    <text x="0" y="80" font-family="Arial" font-size="14" font-weight="bold" fill="#333">Notation:</text>
    <text x="10" y="100" font-family="Arial" font-size="13" fill="#555">C = Input Channels</text>
    <text x="10" y="120" font-family="Arial" font-size="13" fill="#555">R = Bottleneck Rank (e.g., 64)</text>
    <text x="10" y="140" font-family="Arial" font-size="13" fill="#555">IBA - Information-Bottlenecked Adapter</text>
    </g>

  <!-- MAIN PIPELINE -->
  <g transform="translate(50, 160)">
    
    <!-- Input Image (Centered) -->
    <g transform="translate(0, 85)">
      <rect x="0" y="0" width="70" height="70" fill="#fff" stroke="#333" stroke-width="2" />
      <text x="35" y="30" text-anchor="middle" font-size="12" font-family="Arial">Input</text>
      <text x="35" y="45" text-anchor="middle" font-size="12" font-family="Arial">Image</text>
    </g>

    <!-- Augmentation Flow Paths (Clear Forks) -->
    <path d="M70,120 C100,120 100,50 140,50" stroke="#333" stroke-width="2" marker-end="url(#arrow)" fill="none"/>
    <text x="80" y="60" font-family="Arial" font-size="11" fill="#D84315" font-weight="bold" transform="rotate(-30 90,70)">Aug View 1</text>

    <path d="M70,120 C100,120 100,190 140,190" stroke="#333" stroke-width="2" marker-end="url(#arrow)" fill="none"/>
    <text x="95" y="190" font-family="Arial" font-size="11" fill="#D84315" font-weight="bold" transform="rotate(30 90,180)">Aug View 2</text>


    <!-- NETWORK STACK (Top Branch) -->
    <g transform="translate(150, 20)">
      <!-- Container Box -->
      <rect x="-10" y="-10" width="410" height="70" rx="5" fill="#fff" stroke="#999" stroke-dasharray="4,4"/>
      <text x="0" y="-20" font-family="Arial" font-size="14" font-weight="bold" fill="#333">Backbone (Frozen)</text>

      <!-- Layer 1 -->
      <rect x="0" y="0" width="60" height="50" rx="3" fill="url(#gradFrozen)" filter="url(#shadow)" />
      <text x="30" y="30" text-anchor="middle" fill="#fff" font-family="Arial" font-size="12">L1</text>

      <!-- Adapter 1 -->
      <rect x="70" y="10" width="30" height="30" rx="3" fill="url(#gradTrainable)" stroke="#2E7D32" filter="url(#shadow)" />
      <text x="85" y="30" text-anchor="middle" fill="#fff" font-family="Arial" font-size="10">IBA</text>

      <!-- Layer 2 -->
      <rect x="110" y="0" width="60" height="50" rx="3" fill="url(#gradFrozen)" filter="url(#shadow)" />
      <text x="140" y="30" text-anchor="middle" fill="#fff" font-family="Arial" font-size="12">L2</text>

      <!-- Adapter 2 -->
      <rect x="180" y="10" width="30" height="30" rx="3" fill="url(#gradTrainable)" stroke="#2E7D32" filter="url(#shadow)" />
      <text x="195" y="30" text-anchor="middle" fill="#fff" font-family="Arial" font-size="10">IBA</text>

      <!-- Layer 3 -->
      <rect x="220" y="0" width="60" height="50" rx="3" fill="url(#gradFrozen)" filter="url(#shadow)" />
      <text x="250" y="30" text-anchor="middle" fill="#fff" font-family="Arial" font-size="12">L3</text>

      <!-- Adapter 3 (TARGET FOR ZOOM) -->
      <rect x="290" y="10" width="30" height="30" rx="3" fill="url(#gradTrainable)" stroke="#2E7D32" filter="url(#shadow)" />
      <text x="305" y="30" text-anchor="middle" fill="#fff" font-family="Arial" font-size="10">IBA</text>

      <!-- Layer 4 -->
      <rect x="330" y="0" width="60" height="50" rx="3" fill="url(#gradFrozen)" filter="url(#shadow)" />
      <text x="360" y="30" text-anchor="middle" fill="#fff" font-family="Arial" font-size="12">L4</text>
      
      <!-- Projection Head -->
      <path d="M400,25 L440,25" stroke="#333" stroke-width="2" marker-end="url(#arrow)"/>
      <rect x="440" y="0" width="80" height="50" rx="3" fill="url(#gradTrainable)" filter="url(#shadow)" />
      <text x="480" y="30" text-anchor="middle" fill="#fff" font-family="Arial" font-size="10">Proj Head</text>
    </g>

    <!-- Shared Weights Box -->
    <g transform="translate(150, 160)">
       <rect x="0" y="0" width="520" height="50" rx="3" fill="#ECEFF1" stroke="#B0BEC5" />
       <text x="260" y="30" text-anchor="middle" fill="#546E7A" font-family="Arial" font-size="14">Shared Weights (Backbone + IBA)</text>
    </g>

    <!-- SSL Loss -->
    <g transform="translate(730, 90)">
       <circle cx="40" cy="20" r="35" fill="#FF7043" filter="url(#shadow)" />
       <text x="40" y="25" text-anchor="middle" fill="#fff" font-family="Arial" font-size="14" font-weight="bold">LOSS</text>
    </g>

    <!-- Connectors to Loss -->
    <path d="M670,45 L730,90" stroke="#333" stroke-width="2" marker-end="url(#arrow)"/>
    <path d="M670,185 L730,130" stroke="#333" stroke-width="2" marker-end="url(#arrow)"/>

  </g>

  <!-- MAGNIFIED IBA-LOCAL VIEW -->
  <g transform="translate(150, 450)">
    
    <!-- Box -->
    <rect x="0" y="0" width="500" height="130" rx="10" fill="#fff" stroke="#43A047" stroke-width="2" />

    <!-- MODULE TITLE -->
    <text x="15" y="25" font-family="Arial" font-size="16" font-weight="bold" fill="#2E7D32">Module Detail: IBA Block</text>

    <!-- Internal Flow (EVEN SPACING) -->
    <!-- X Coordinates Calculation for 35px Gaps and 80px Width Blocks:
         Start X = 20
         Circle (20,30) r=15 -> Right edge 35.
         Arrow 1: 40 -> 75 (Len 35)
         Block 1: 75 -> 155 (W 80)
         Arrow 2: 155 -> 190 (Len 35)
         Block 2: 190 -> 270 (W 80)
         Arrow 3: 270 -> 305 (Len 35)
         Block 3: 305 -> 385 (W 80)
         Arrow 4: 385 -> 420 (Len 35)
         Circle +: cx 435 (Left edge 420)
    -->
    <g transform="translate(30, 50)">
      
      <!-- Input X -->
      <circle cx="20" cy="30" r="15" fill="#ddd" />
      <text x="20" y="35" text-anchor="middle" font-family="Arial" font-size="12">x</text>

      <!-- Arrow 1 (Even) -->
      <path d="M40,30 L75,30" stroke="#333" stroke-width="2" marker-end="url(#arrow)"/>

      <!-- Down Project -->
      <rect x="75" y="10" width="80" height="40" rx="3" fill="#81C784" />
      <text x="115" y="35" text-anchor="middle" font-family="Arial" font-size="12" fill="#fff">Down Proj</text>
      <text x="115" y="70" text-anchor="middle" font-family="Arial" font-size="10" fill="#555">Dim: C -> R</text>

      <!-- Arrow 2 (Even) -->
      <path d="M155,30 L190,30" stroke="#333" stroke-width="2" marker-end="url(#arrow)"/>

      <!-- Non-Linear Activation (Widened to 80px) -->
      <rect x="190" y="10" width="80" height="40" rx="3" fill="#FFCA28" />
      <text x="230" y="25" text-anchor="middle" font-family="Arial" font-size="10" fill="#fff">Non-Linear</text>
      <text x="230" y="38" text-anchor="middle" font-family="Arial" font-size="10" fill="#fff">Act Fn (Relu,...)</text>

      <!-- Arrow 3 (Even) -->
      <path d="M270,30 L305,30" stroke="#333" stroke-width="2" marker-end="url(#arrow)"/>

      <!-- Up Project -->
      <rect x="305" y="10" width="80" height="40" rx="3" fill="#81C784" />
      <text x="345" y="35" text-anchor="middle" font-family="Arial" font-size="12" fill="#fff">Up Proj</text>
      <text x="345" y="70" text-anchor="middle" font-family="Arial" font-size="10" fill="#555">Dim: R -> C</text>

      <!-- Arrow 4 (Even) -->
      <path d="M385,30 L420,30" stroke="#333" stroke-width="2" marker-end="url(#arrow)"/>

      <!-- Residual Path (Adjusted for new width) -->
      <!-- Input Center X=20. Target Circle Center X=435 -->
      <path d="M20,15 L20,-15 L435,-15 L435,15" stroke="#999" stroke-width="2" stroke-dasharray="5,5" fill="none" marker-end="url(#arrow)" />

      <!-- Add Circle -->
      <circle cx="435" cy="30" r="15" fill="#fff" stroke="#333" />
      <text x="435" y="36" text-anchor="middle" font-family="Arial" font-size="18">+</text>

    </g>
  </g>
</svg>