<svg viewBox="0 0 1280 720" xmlns="http://www.w3.org/2000/svg">
  <!-- Definitions for Gradients and Markers -->
  <defs>
    <linearGradient id="clientGrad" x1="0%" y1="0%" x2="0%" y2="100%">
      <stop offset="0%" style="stop-color:#f5f7fa;stop-opacity:1" />
      <stop offset="100%" style="stop-color:#c3cfe2;stop-opacity:1" />
    </linearGradient>
    <linearGradient id="serverGrad" x1="0%" y1="0%" x2="0%" y2="100%">
      <stop offset="0%" style="stop-color:#fdfbfb;stop-opacity:1" />
      <stop offset="100%" style="stop-color:#ebedee;stop-opacity:1" />
    </linearGradient>
    <linearGradient id="adapterGrad" x1="0%" y1="0%" x2="100%" y2="0%">
      <stop offset="0%" style="stop-color:#ff9966;stop-opacity:1" />
      <stop offset="100%" style="stop-color:#ff5e62;stop-opacity:1" />
    </linearGradient>
    <filter id="dropShadow" x="-20%" y="-20%" width="140%" height="140%">
      <feGaussianBlur in="SourceAlpha" stdDeviation="3"/>
      <feOffset dx="2" dy="2" result="offsetblur"/>
      <feComponentTransfer>
        <feFuncA type="linear" slope="0.3"/>
      </feComponentTransfer>
      <feMerge>
        <feMergeNode/>
        <feMergeNode in="SourceGraphic"/>
      </feMerge>
    </filter>
    <marker id="arrowHead" markerWidth="10" markerHeight="7" refX="9" refY="3.5" orient="auto">
      <polygon points="0 0, 10 3.5, 0 7" fill="#333"/>
    </marker>
    <marker id="arrowHeadOrange" markerWidth="10" markerHeight="7" refX="9" refY="3.5" orient="auto">
      <polygon points="0 0, 10 3.5, 0 7" fill="#e67e22"/>
    </marker>
    <marker id="arrowHeadBlue" markerWidth="10" markerHeight="7" refX="9" refY="3.5" orient="auto">
      <polygon points="0 0, 10 3.5, 0 7" fill="#0056b3"/>
    </marker>
  </defs>

  <!-- Background -->
  <rect width="1280" height="720" fill="white"/>
  
  <!-- Title -->
  <text x="640" y="50" text-anchor="middle" font-family="Arial, sans-serif" font-weight="bold" font-size="32" fill="#333">Architecture</text>
  <text x="640" y="80" text-anchor="middle" font-family="Arial, sans-serif" font-size="18" fill="#666">Prototype-Oriented Distillation for Federated Continual Self-Supervised Vision</text>

  <!-- ================= LEFT SIDE: CLIENT (EDGE) ================= -->
  <!-- Made wider (500px) to prevent overlap between backbone and PFO -->
  <g transform="translate(40, 120)">
    <!-- Main Container -->
    <rect x="0" y="0" width="520" height="520" rx="15" ry="15" fill="url(#clientGrad)" stroke="#999" stroke-width="2" filter="url(#dropShadow)"/>
    <text x="260" y="40" text-anchor="middle" font-family="Arial" font-weight="bold" font-size="22" fill="#2c3e50">Client</text>

    <!-- 1. Input Stream (Moved left to avoid text collision) -->
    <text x="5" y="85" font-family="Arial" font-size="14" font-weight="bold" fill="#444">Local Stream</text>
    <path d="M 20 100 L 100 100" stroke="#333" stroke-width="2" marker-end="url(#arrowHead)"/>
    
    <!-- 2. Model Backbone Stack (Shifted Left to make room for PFO) -->
    <g transform="translate(100, 80)">
      <!-- Frozen Block 1 -->
      <rect x="0" y="0" width="100" height="45" rx="5" fill="#bdc3c7" stroke="#7f8c8d" stroke-width="2"/>
      <text x="50" y="27" text-anchor="middle" font-family="Arial" font-size="12" fill="white">Layer 1</text>
      
      <!-- Arrow Down -->
      <path d="M 50 45 L 50 70" stroke="#333" stroke-width="2"/>
      
      <!-- Adapter 1 -->
      <rect x="15" y="70" width="70" height="35" rx="5" fill="url(#adapterGrad)" stroke="#c0392b" stroke-width="2"/>
      <text x="50" y="92" text-anchor="middle" font-family="Arial" font-size="11" fill="white" font-weight="bold">Adapter</text>

      <!-- Arrow Down -->
      <path d="M 50 105 L 50 130" stroke="#333" stroke-width="2"/>

      <!-- Frozen Block 2 -->
      <rect x="0" y="130" width="100" height="45" rx="5" fill="#bdc3c7" stroke="#7f8c8d" stroke-width="2"/>
      <text x="50" y="157" text-anchor="middle" font-family="Arial" font-size="12" fill="white">Layer N</text>
      
      <!-- Arrow Down -->
      <path d="M 50 175 L 50 200" stroke="#333" stroke-width="2"/>

      <!-- Adapter 2 -->
      <rect x="15" y="200" width="70" height="35" rx="5" fill="url(#adapterGrad)" stroke="#c0392b" stroke-width="2"/>
      <text x="50" y="222" text-anchor="middle" font-family="Arial" font-size="11" fill="white" font-weight="bold">Projector</text>
    </g>

    <!-- 3. PFO-Reg (Loss) - Moved to RIGHT of backbone, no overlap -->
    <g transform="translate(350, 160)">
      <circle cx="0" cy="0" r="45" fill="#fff" stroke="#e67e22" stroke-width="2" stroke-dasharray="4"/>
      <text x="0" y="-10" text-anchor="middle" font-family="Arial" font-weight="bold" font-size="14" fill="#e67e22">PFO-Reg</text>
      <text x="0" y="10" text-anchor="middle" font-family="Arial" font-size="10" fill="#333">Orthogonal</text>
      <text x="0" y="22" text-anchor="middle" font-family="Arial" font-size="10" fill="#333">Constraint</text>
    </g>
    
    <!-- Curved Arrow from Adapter 1 to PFO -->
    <path d="M 190 170 Q 250 170 300 160" stroke="#e67e22" stroke-width="2" marker-end="url(#arrowHeadOrange)" stroke-dasharray="4" fill="none"/>

    <!-- 4. DPM-Bank (Moved to Bottom Right, clear path) -->
    <g transform="translate(350, 340)">
      <path d="M -35 -25 L -35 35 Q 0 45 35 35 L 35 -25 Q 0 -15 -35 -25" fill="#3498db" stroke="#2980b9" stroke-width="2"/>
      <ellipse cx="0" cy="-25" rx="35" ry="10" fill="#5dade2" stroke="#2980b9" stroke-width="2"/>
      <text x="0" y="10" text-anchor="middle" font-family="Arial" font-weight="bold" font-size="14" fill="white">DPM</text>
      <text x="0" y="25" text-anchor="middle" font-family="Arial" font-weight="bold" font-size="14" fill="white">Bank</text>
      <text x="60" y="5" text-anchor="middle" font-family="Arial" font-size="12" fill="#333">Local</text>
      <text x="70" y="23" text-anchor="middle" font-family="Arial" font-size="12" fill="#333">Prototypes</text>
    </g>

    <!-- Arrow from Adapter 2 to Bank -->
    <path d="M 190 300 Q 250 300 310 320" stroke="#333" stroke-width="2" marker-end="url(#arrowHead)" fill="none"/>
    
    <!-- Legend inside Client -->
    <rect x="20" y="470" width="15" height="15" fill="#bdc3c7" stroke="#7f8c8d"/>
    <text x="45" y="482" font-family="Arial" font-size="12">Frozen</text>
    <rect x="100" y="470" width="15" height="15" fill="url(#adapterGrad)" stroke="#c0392b"/>
    <text x="125" y="482" font-family="Arial" font-size="12">Trainable</text>

  </g>

  <!-- ================= MIDDLE: COMMUNICATION ================= -->
  
  <!-- Uplink -->
  <g transform="translate(560, 260)">
    <path d="M 0 50 Q 110 0 220 50" fill="none" stroke="#27ae60" stroke-width="3" marker-end="url(#arrowHead)"/>
    <rect x="60" y="-35" width="110" height="40" rx="5" fill="white" stroke="#27ae60" stroke-width="2"/>
    <text x="115" y="-20" text-anchor="middle" font-family="Arial" font-weight="bold" font-size="11" fill="#27ae60">Sparse-Comm</text>
    <text x="115" y="-5" text-anchor="middle" font-family="Arial" font-size="9" fill="#555">Adapters + Prototypes</text>
  </g>

  <!-- Downlink -->
  <g transform="translate(560, 420)">
    <path d="M 220 0 Q 110 50 0 0" fill="none" stroke="#0056b3" stroke-width="3" marker-end="url(#arrowHead)"/>
    <rect x="60" y="45" width="110" height="40" rx="5" fill="white" stroke="#0056b3" stroke-width="2"/>
    <text x="115" y="63" text-anchor="middle" font-family="Arial" font-weight="bold" font-size="11" fill="#0056b3">Global Broadcast</text>
    <text x="115" y="75" text-anchor="middle" font-family="Arial" font-size="9" fill="#555">Global Adapter + Basis</text>
  </g>


  <!-- ================= RIGHT SIDE: SERVER ================= -->
  <g transform="translate(780, 120)">
    <rect x="0" y="0" width="460" height="520" rx="15" ry="15" fill="url(#serverGrad)" stroke="#999" stroke-width="2" filter="url(#dropShadow)"/>
    <text x="230" y="40" text-anchor="middle" font-family="Arial" font-weight="bold" font-size="22" fill="#2c3e50">Server</text>

    <!-- Component 1: Aggregation (Left side) -->
    <g transform="translate(40, 90)">
      <rect x="0" y="0" width="140" height="65" rx="5" fill="#fff" stroke="#8e44ad" stroke-width="2"/>
      <text x="70" y="25" text-anchor="middle" font-family="Arial" font-weight="bold" font-size="14" fill="#333">Weighted</text>
      <text x="70" y="45" text-anchor="middle" font-family="Arial" font-weight="bold" font-size="14" fill="#333">Aggregation</text>
      <!-- Sigma symbol -->
      <text x="-25" y="45" font-family="Arial" font-size="36" font-weight="bold" fill="#8e44ad">Σ</text>
    </g>

    <!-- Component 2: Global Prototypes (Right side) -->
    <g transform="translate(280, 90)">
      <path d="M -30 -20 L -30 45 Q 0 55 30 45 L 30 -20 Q 0 -10 -30 -20" fill="#9b59b6" stroke="#8e44ad" stroke-width="2"/>
      <ellipse cx="0" cy="-20" rx="30" ry="10" fill="#d2b4de" stroke="#8e44ad" stroke-width="2"/>
      <text x="0" y="15" text-anchor="middle" font-family="Arial" font-weight="bold" font-size="14" fill="white">Global</text>
      <text x="0" y="32" text-anchor="middle" font-family="Arial" font-weight="bold" font-size="14" fill="white">Bank</text>
    </g>

    <!-- Arrows Down to Distillation -->
    <path d="M 110 155 L 110 200" stroke="#333" stroke-width="2" marker-end="url(#arrowHead)"/>
    <path d="M 280 155 L 280 200" stroke="#333" stroke-width="2" marker-end="url(#arrowHead)"/>

    <!-- Component 3: Distillation Engine -->
    <g transform="translate(50, 200)">
      <rect x="0" y="0" width="360" height="130" rx="10" fill="#fff" stroke="#2c3e50" stroke-width="2" stroke-dasharray="5,5"/>
      <text x="180" y="30" text-anchor="middle" font-family="Arial" font-weight="bold" font-size="16" fill="#2c3e50">Distillation Engine</text>
      <text x="180" y="50" text-anchor="middle" font-family="Arial" font-weight="bold" font-size="14" fill="#2c3e50">(Teacher-Student)</text>
      
      <!-- Inner Logic -->
      <text x="180" y="80" text-anchor="middle" font-family="Arial" font-size="13" fill="#555">Align Aggregated Weights</text>
      <text x="180" y="98" text-anchor="middle" font-family="Arial" font-size="13" fill="#555">with Global Prototypes</text>
      <text x="180" y="118" text-anchor="middle" font-family="Arial" font-size="12" fill="#c0392b" font-weight="bold">(Prevents Forgetting)</text>
    </g>

    <!-- Arrow Down to Basis Update -->
    <path d="M 230 330 L 230 370" stroke="#333" stroke-width="2" marker-end="url(#arrowHead)"/>

    <!-- Component 4: Basis U Update -->
    <g transform="translate(140, 370)">
      <rect x="0" y="0" width="180" height="80" rx="5" fill="#f1c40f" stroke="#f39c12" stroke-width="2"/>
      <text x="90" y="30" text-anchor="middle" font-family="Arial" font-weight="bold" font-size="16" fill="#333">Basis Update</text>
      <text x="90" y="55" text-anchor="middle" font-family="Arial" font-size="14" fill="#333">PCA(Prototypes) → U</text>
    </g>
    
  </g>

</svg>